<svg width="16" height="17" viewBox="0 0 16 17" fill="none" xmlns="http://www.w3.org/2000/svg">
<path d="M15.9829 0V11.8053C15.9829 12.682 15.6727 13.5227 15.1206 14.1426C14.5684 14.7625 13.8195 15.1108 13.0387 15.1108C12.2578 15.1108 11.509 14.7625 10.9568 14.1426C10.4047 13.5227 10.0945 12.682 10.0945 11.8053C10.0945 10.9286 10.4047 10.0879 10.9568 9.46796C11.509 8.84806 12.2578 8.49981 13.0387 8.49981C13.4929 8.49981 13.922 8.61314 14.3005 8.82091V3.27715L5.88844 5.28877V13.6941C5.88844 14.5708 5.57825 15.4116 5.0261 16.0315C4.47395 16.6514 3.72508 16.9996 2.94422 16.9996C2.16336 16.9996 1.41449 16.6514 0.862342 16.0315C0.310194 15.4116 0 14.5708 0 13.6941C0 12.8175 0.310194 11.9767 0.862342 11.3568C1.41449 10.7369 2.16336 10.3887 2.94422 10.3887C3.39847 10.3887 3.82749 10.502 4.20603 10.7098V2.83327L15.9829 0Z" fill="#F8F8F8"/>
</svg>
