<svg width="28" height="45" viewBox="0 0 28 45" fill="none" xmlns="http://www.w3.org/2000/svg">
<path d="M0 41.3565V3.64376C0 2.61136 0.274192 1.74537 0.822575 1.04577C1.37096 0.346169 2.01074 -0.00241655 2.74192 1.26081e-05C2.97041 1.26081e-05 3.21078 0.0449528 3.46304 0.134832C3.71529 0.224711 3.95476 0.361958 4.18142 0.546574L26.528 19.4029C26.9393 19.7673 27.2482 20.2228 27.4548 20.7693C27.6614 21.3159 27.7637 21.8928 27.7619 22.5001C27.7619 23.1074 27.6586 23.6843 27.4521 24.2309C27.2455 24.7775 26.9375 25.2329 26.528 25.5973L4.18142 44.4537C3.95293 44.6359 3.71255 44.7731 3.4603 44.8654C3.20804 44.9577 2.96858 45.0027 2.74192 45.0002C2.01074 45.0002 1.37096 44.6504 0.822575 43.9508C0.274192 43.2512 0 42.3865 0 41.3565Z" fill="#F8F8F8"/>
</svg>
