<svg width="26" height="42" viewBox="0 0 26 42" fill="none" xmlns="http://www.w3.org/2000/svg">
<path d="M24.625 42.0004L14.7888 25.9487C14.0034 27.0407 13.1002 27.8858 12.0792 28.4839C11.0582 29.082 10.032 29.3811 9.00053 29.3811C6.4852 29.3811 4.35628 27.9601 2.61377 25.1182C0.871256 22.2746 0 18.8013 0 14.6982C0 10.5952 0.870208 7.12012 2.61062 4.27309C4.35209 1.42436 6.47996 0 8.99425 0C11.5096 0 13.6395 1.4218 15.3842 4.2654C17.1288 7.10901 18.0011 10.584 18.0011 14.6905C18.0011 16.4712 17.8079 18.1946 17.4214 19.8608C17.034 21.527 16.5261 22.9522 15.8978 24.1365L25.734 40.1855L24.625 42.0004ZM9.00053 26.8151C11.0844 26.8151 12.8442 25.6446 14.2799 23.3034C15.7145 20.9622 16.4319 18.0904 16.4319 14.688C16.4319 11.2873 15.7145 8.41631 14.2799 6.07513C12.8453 3.73394 11.086 2.56334 9.0021 2.56334C6.91821 2.56334 5.15842 3.73394 3.72273 6.07513C2.28809 8.41631 1.57077 11.2873 1.57077 14.688C1.57077 18.0887 2.28809 20.9596 3.72273 23.3008C5.15737 25.642 6.91664 26.8151 9.00053 26.8151Z" fill="black"/>
</svg>
