<svg width="47" height="58" viewBox="0 0 47 58" fill="none" xmlns="http://www.w3.org/2000/svg">
<path d="M23.2367 0C18.6409 0 14.1484 1.70083 10.3271 4.88741C6.50584 8.07398 3.52753 12.6032 1.7688 17.9023C0.0100681 23.2014 -0.450096 29.0323 0.446497 34.6578C1.34309 40.2833 3.55617 45.4506 6.80589 49.5064C10.0556 53.5621 14.196 56.3241 18.7035 57.4431C23.2109 58.562 27.8831 57.9877 32.129 55.7928C36.375 53.5978 40.0041 49.8808 42.5573 45.1118C45.1106 40.3427 46.4734 34.7358 46.4734 29.0002C46.4669 21.3113 44.0167 13.9397 39.6604 8.50292C35.3041 3.06609 29.3975 0.00811954 23.2367 0ZM23.2367 53.5387C19.348 53.5387 15.5466 52.0996 12.3132 49.4032C9.07982 46.7069 6.55971 42.8745 5.07156 38.3907C3.5834 33.9068 3.19403 28.9729 3.95269 24.2129C4.71134 19.4529 6.58395 15.0805 9.33371 11.6487C12.0835 8.21696 15.5869 5.87989 19.4009 4.93306C23.2149 3.98624 27.1682 4.47218 30.761 6.32945C34.3537 8.18672 37.4245 11.3319 39.5849 15.3672C41.7454 19.4026 42.8986 24.1469 42.8986 29.0002C42.8926 35.5059 40.8192 41.7431 37.1332 46.3434C33.4472 50.9437 28.4495 53.5314 23.2367 53.5387Z" fill="#DC0909"/>
<path d="M23.2365 49.0768C32.1211 49.0768 39.3235 40.088 39.3235 28.9997C39.3235 17.9115 32.1211 8.9227 23.2365 8.9227C14.352 8.9227 7.14959 17.9115 7.14959 28.9997C7.14959 40.088 14.352 49.0768 23.2365 49.0768Z" fill="#DC0909"/>
</svg>
