<svg width="22" height="31" viewBox="0 0 22 31" fill="none" xmlns="http://www.w3.org/2000/svg">
<path d="M10.8354 0C4.87594 0 0 6.97493 0 15.4998C0 24.0247 4.87594 30.9997 10.8354 30.9997C16.7949 30.9997 21.6708 24.0247 21.6708 15.4998C21.6708 6.97493 16.7949 0 10.8354 0ZM10.8354 27.8997C6.057 27.8997 2.16708 22.3353 2.16708 15.4998C2.16708 8.66441 6.057 3.09997 10.8354 3.09997C15.6138 3.09997 19.5038 8.66441 19.5038 15.4998C19.5038 22.3353 15.6138 27.8997 10.8354 27.8997ZM15.8089 8.64891L8.66834 18.8633L5.86196 14.8643L4.33417 17.0498L8.66834 23.2498L17.3367 10.8499L15.8089 8.64891Z" fill="#F8F8F8"/>
</svg>
