<svg width="39" height="47" viewBox="0 0 39 47" fill="none" xmlns="http://www.w3.org/2000/svg">
<path fill-rule="evenodd" clip-rule="evenodd" d="M19.0895 44.389C28.4613 44.389 36.0579 35.0373 36.0579 23.5001C36.0579 11.9628 28.4613 2.61112 19.0895 2.61112C9.7176 2.61112 2.12105 11.9628 2.12105 23.5001C2.12105 35.0373 9.7176 44.389 19.0895 44.389ZM19.0895 47.0001C29.6322 47.0001 38.179 36.4786 38.179 23.5001C38.179 10.5215 29.6322 0 19.0895 0C8.54678 0 0 10.5215 0 23.5001C0 36.4786 8.54678 47.0001 19.0895 47.0001Z" fill="#CBB022"/>
<path d="M14.8474 19.5837C14.8474 22.469 13.6596 24.806 12.1961 24.806C10.7326 24.806 9.54476 22.469 9.54476 19.5837C9.54476 16.6984 10.7326 14.3615 12.1961 14.3615C13.6596 14.3615 14.8474 16.6984 14.8474 19.5837ZM28.6342 19.5837C28.6342 22.469 27.4464 24.806 25.9829 24.806C24.5194 24.806 23.3316 22.469 23.3316 19.5837C23.3316 16.6984 24.5194 14.3615 25.9829 14.3615C27.4464 14.3615 28.6342 16.6984 28.6342 19.5837Z" fill="#CBB022"/>
<path fill-rule="evenodd" clip-rule="evenodd" d="M10.6052 32.6386C10.6052 32.2923 10.717 31.9602 10.9159 31.7154C11.1147 31.4706 11.3845 31.333 11.6658 31.333H26.5131C26.7944 31.333 27.0641 31.4706 27.263 31.7154C27.4619 31.9602 27.5737 32.2923 27.5737 32.6386C27.5737 32.9848 27.4619 33.3169 27.263 33.5617C27.0641 33.8066 26.7944 33.9441 26.5131 33.9441H11.6658C11.3845 33.9441 11.1147 33.8066 10.9159 33.5617C10.717 33.3169 10.6052 32.9848 10.6052 32.6386Z" fill="#CBB022"/>
</svg>
