<svg width="28" height="38" viewBox="0 0 28 38" fill="none" xmlns="http://www.w3.org/2000/svg">
<path d="M6.18646 38.0003V33.7781H12.3729V27.2336C11.1099 26.8465 9.98186 26.1161 8.98893 25.0422C7.996 23.9684 7.26806 22.6229 6.80511 21.0057C4.87184 20.6891 3.25408 19.5371 1.95183 17.5498C0.64958 15.5625 -0.00102985 13.2312 1.22359e-06 10.5556V8.44452C1.22359e-06 7.2834 0.303138 6.28905 0.909411 5.46149C1.51568 4.63393 2.24362 4.22085 3.09323 4.22226H6.18646V0H21.6526V4.22226H24.7458C25.5965 4.22226 26.3249 4.63604 26.9312 5.4636C27.5375 6.29117 27.8401 7.28481 27.8391 8.44452V10.5556C27.8391 13.2297 27.1879 15.5611 25.8857 17.5498C24.5834 19.5385 22.9662 20.6905 21.034 21.0057C20.57 22.6243 19.8415 23.9705 18.8486 25.0443C17.8557 26.1182 16.7282 26.8479 15.4662 27.2336V33.7781H21.6526V38.0003H6.18646ZM6.18646 16.4668V8.44452H3.09323V10.5556C3.09323 11.8927 3.37678 13.0982 3.94387 14.172C4.51096 15.2459 5.25849 16.0108 6.18646 16.4668ZM21.6526 16.4668C22.5806 16.0094 23.3281 15.2438 23.8952 14.1699C24.4623 13.096 24.7458 11.8913 24.7458 10.5556V8.44452H21.6526V16.4668Z" fill="#F8F8F8"/>
</svg>
