<svg width="136" height="73" viewBox="0 0 136 73" fill="none" xmlns="http://www.w3.org/2000/svg">
<path d="M28.715 44.1133L26.3546 44.7083C26.2973 44.1909 26.3155 43.6609 26.4077 43.1552C26.4999 42.6495 26.6641 42.1801 26.8887 41.7798C27.1134 41.3795 27.3931 41.0579 27.7085 40.8373C28.0239 40.6167 28.3674 40.5024 28.715 40.5025V44.1133ZM7.65732 44.1133V47.724C6.33643 47.724 5.2644 46.1064 5.2644 44.1133H7.65732ZM11.486 11.6162H33.2328V18.8378H11.486V11.6162ZM35.53 47.724H28.715V40.5025H35.53V47.724ZM31.0754 43.5182L32.6183 57.4876L27.8976 58.6748L26.3546 44.7083L31.0754 43.5182ZM28.3704 65.0558H27.9608V57.8342H28.3704V65.0558ZM21.1917 59.5905L16.3752 48.6888L20.357 44.6823L25.1735 55.584L21.1917 59.5905ZM15.1807 47.724H7.65732V40.5025H15.1807V47.724ZM5.2644 44.1133V21.0042H10.0502V44.1133H5.2644ZM39.3338 19.1642L41.631 36.496L36.939 37.9114L34.6418 20.5796L39.3338 19.1642ZM16.3752 48.6888C16.2441 48.3921 16.0665 48.1488 15.8581 47.9805C15.6497 47.8121 15.417 47.7241 15.1807 47.724V40.5025C16.2048 40.5025 17.2131 40.884 18.1161 41.6131C19.0191 42.3423 19.7889 43.3965 20.357 44.6823L16.3752 48.6888ZM32.6183 57.4876C32.7212 58.4189 32.6884 59.3728 32.5222 60.2829C32.356 61.1931 32.0604 62.0377 31.6559 62.758C31.2514 63.4783 30.7478 64.057 30.1801 64.4538C29.6124 64.8506 28.9961 65.0561 28.3704 65.0558V57.8342C28.301 57.8345 28.2306 57.8575 28.1677 57.9017C28.1048 57.9459 28.049 58.0102 28.0042 58.0902C27.9594 58.1701 27.9267 58.2638 27.9083 58.3648C27.8899 58.4658 27.8862 58.5715 27.8976 58.6748L32.6183 57.4905V57.4876ZM35.53 40.5025C35.7425 40.5027 35.9524 40.4318 36.1445 40.2948C36.3367 40.1578 36.5062 39.9581 36.641 39.7102C36.7758 39.4624 36.8725 39.1724 36.924 38.8613C36.9755 38.5503 36.9806 38.2258 36.939 37.9114L41.631 36.496C41.8114 37.8577 41.7893 39.2628 41.5664 40.6101C41.3435 41.9574 40.9253 43.2133 40.3419 44.2873C39.7585 45.3613 39.0245 46.2266 38.1927 46.8209C37.361 47.4152 36.4522 47.7236 35.532 47.724V40.5025H35.53ZM33.2328 11.6162C34.6713 11.6162 36.0653 12.3682 37.1776 13.7444C38.2899 15.1206 39.0519 17.0358 39.3338 19.1642L34.6418 20.5796C34.5767 20.0882 34.4007 19.646 34.1438 19.3284C33.8869 19.0108 33.565 18.8374 33.2328 18.8378V11.6162ZM27.9608 65.0558C26.6212 65.0563 25.3023 64.5578 24.1211 63.6044C22.9399 62.651 21.9349 61.2722 21.1917 59.5905L25.1735 55.584C25.7957 56.9908 26.8409 57.8342 27.9608 57.8342V65.0558ZM11.486 18.8378C11.1052 18.8378 10.74 19.066 10.4708 19.4723C10.2015 19.8786 10.0502 20.4297 10.0502 21.0042H5.2644C5.2644 18.5144 5.91989 16.1265 7.08667 14.3659C8.25344 12.6053 9.83593 11.6162 11.486 11.6162V18.8378Z" fill="#DC0909"/>
<path d="M122.593 21.7827L120.721 21.2723C120.676 21.7179 120.69 22.1743 120.763 22.6098C120.837 23.0452 120.967 23.4493 121.145 23.794C121.323 24.1387 121.545 24.4156 121.795 24.6057C122.045 24.7957 122.318 24.8943 122.593 24.8945V21.7827ZM101.705 21.7827V18.6709C101.201 18.6709 100.718 18.9987 100.362 19.5823C100.006 20.1659 99.8059 20.9574 99.8059 21.7827H101.705ZM105.503 56.0126H127.075V49.789H105.503V56.0126ZM129.353 18.6709H122.593V24.8945H129.353V18.6709ZM124.467 22.293L125.996 7.24741L122.251 6.22362L120.721 21.2723L124.467 22.293ZM122.251 3.37638e-07H121.845V6.22362H122.251V3.37638e-07ZM115.523 5.54213L110.748 17.2861L113.907 20.7402L118.685 8.99624L115.523 5.54213ZM109.168 18.6709H101.705V24.8945H109.168V18.6709ZM99.8059 21.7827V46.6771H103.604V21.7827H99.8059ZM132.661 48.5069L134.94 29.836L131.218 28.6162L128.94 47.2871L132.661 48.5069ZM110.748 17.2861C110.574 17.7122 110.339 18.0615 110.064 18.303C109.788 18.5446 109.48 18.6709 109.168 18.6709V24.8945C110.106 24.8944 111.029 24.5149 111.856 23.7896C112.682 23.0644 113.387 22.0158 113.907 20.7371L110.748 17.283V17.2861ZM125.996 7.24741C126.087 6.35599 126.058 5.44289 125.912 4.57159C125.765 3.70028 125.505 2.89167 125.148 2.20197C124.792 1.51227 124.348 0.958019 123.848 0.577757C123.348 0.197495 122.803 0.000341107 122.251 3.37638e-07V6.22362L125.996 7.24741ZM129.353 24.8945C129.634 24.8943 129.912 24.9963 130.166 25.1932C130.42 25.39 130.644 25.6768 130.822 26.0328C131.001 26.3888 131.128 26.8052 131.197 27.252C131.265 27.6987 131.273 28.1647 131.218 28.6162L134.94 29.836C135.105 28.4819 135.085 27.0846 134.881 25.7449C134.677 24.4051 134.294 23.1562 133.76 22.0883C133.226 21.0203 132.553 20.1598 131.792 19.5689C131.03 18.9779 130.198 18.6712 129.355 18.6709V24.8945H129.353ZM127.075 56.0126C128.392 56.0127 129.668 55.2649 130.687 53.8965C131.706 52.528 132.403 50.6234 132.661 48.5069L128.94 47.2871C128.853 47.9933 128.62 48.6287 128.28 49.0849C127.94 49.5411 127.514 49.79 127.075 49.789V56.0126ZM121.845 3.37638e-07C120.594 -0.000476982 119.363 0.505144 118.26 1.47197C117.157 2.43879 116.217 3.83689 115.523 5.54213L118.685 8.99624C119.032 8.14355 119.502 7.44433 120.053 6.96066C120.604 6.47698 121.22 6.22381 121.845 6.22362V3.37638e-07ZM105.503 49.789C104.999 49.789 104.516 49.4611 104.16 48.8775C103.804 48.294 103.604 47.5024 103.604 46.6771H99.8059C99.8059 49.1531 100.406 51.5276 101.474 53.2783C102.543 55.029 103.992 56.0126 105.503 56.0126V49.789Z" fill="#0AD24E"/>
</svg>
