<svg width="44" height="56" viewBox="0 0 44 56" fill="none" xmlns="http://www.w3.org/2000/svg">
<path d="M19.745 2.79713C19.8738 3.52127 19.7714 4.28088 19.4603 4.90895C19.1493 5.53702 18.655 5.98214 18.0862 6.14646C14.4279 7.20826 11.1319 9.73053 8.67924 13.3452C6.22659 16.9598 4.74565 21.4777 4.45254 26.2394C4.15944 31.0011 5.06951 35.7574 7.04995 39.8142C9.03039 43.871 11.9775 47.016 15.4613 48.7901C18.945 50.5643 22.783 50.8747 26.4152 49.6762C30.0473 48.4776 33.2835 45.8329 35.6514 42.1278C38.0193 38.4227 39.3951 33.8513 39.5779 29.0807C39.7606 24.3101 38.7409 19.5899 36.6674 15.6092C36.5075 15.3028 36.3965 14.9594 36.3409 14.5985C36.2852 14.2375 36.286 13.8662 36.3431 13.5057C36.4584 12.7775 36.7962 12.1375 37.2823 11.7264C37.7683 11.3153 38.3627 11.1668 38.9348 11.3136C39.218 11.3862 39.4872 11.5292 39.7271 11.7344C39.9669 11.9395 40.1727 12.2027 40.3326 12.5091C42.7301 17.0967 44.0063 22.4855 44 27.9955C44 43.4624 34.1506 56 22 56C9.84939 56 0 43.4624 0 27.9955C0 14.6654 7.315 3.51405 17.1138 0.685595C17.6827 0.52166 18.2794 0.651998 18.7728 1.04796C19.2662 1.44391 19.6159 2.07308 19.745 2.79713ZM24.2 2.83074C24.1997 2.41064 24.273 1.99574 24.4144 1.61619C24.5559 1.23663 24.762 0.901952 25.0177 0.636458C25.2735 0.370963 25.5725 0.181323 25.893 0.0813158C26.2136 -0.0186917 26.5476 -0.0265556 26.8708 0.0582956L27.1238 0.14511L33.6952 2.93435C34.229 3.15894 34.6751 3.63519 34.9417 4.26531C35.2084 4.89542 35.2754 5.63158 35.1289 6.3226C34.9825 7.01362 34.6338 7.60706 34.1544 7.98105C33.675 8.35504 33.1014 8.4812 32.5512 8.33361L32.3048 8.2496L28.6 6.67575V27.9955C28.5993 29.7549 28.1648 31.4697 27.3576 32.8979C26.5504 34.3261 25.4114 35.3957 24.1011 35.9558C22.7909 36.5159 21.3756 36.5383 20.0548 36.0197C18.734 35.5012 17.5745 34.4679 16.7397 33.0657C15.9049 31.6634 15.4371 29.9629 15.4021 28.2041C15.3671 26.4453 15.7668 24.7169 16.5448 23.2627C17.3228 21.8084 18.4398 20.7018 19.7383 20.0989C21.0368 19.496 22.4512 19.4272 23.782 19.9023L24.2 20.0703V2.83354V2.83074Z" fill="#F8F8F8"/>
</svg>
