<svg width="28" height="38" viewBox="0 0 28 38" fill="none" xmlns="http://www.w3.org/2000/svg">
<path d="M13.9195 0C15.7654 0 17.5356 1.0009 18.8408 2.78251C20.146 4.56412 20.8793 6.9805 20.8793 9.50008C20.8793 12.0197 20.146 14.436 18.8408 16.2177C17.5356 17.9993 15.7654 19.0002 13.9195 19.0002C12.0737 19.0002 10.3034 17.9993 8.99824 16.2177C7.69303 14.436 6.95977 12.0197 6.95977 9.50008C6.95977 6.9805 7.69303 4.56412 8.99824 2.78251C10.3034 1.0009 12.0737 0 13.9195 0ZM13.9195 4.75004C12.9966 4.75004 12.1115 5.25049 11.4589 6.1413C10.8063 7.0321 10.4397 8.24029 10.4397 9.50008C10.4397 10.7599 10.8063 11.9681 11.4589 12.8589C12.1115 13.7497 12.9966 14.2501 13.9195 14.2501C14.8425 14.2501 15.7276 13.7497 16.3802 12.8589C17.0328 11.9681 17.3994 10.7599 17.3994 9.50008C17.3994 8.24029 17.0328 7.0321 16.3802 6.1413C15.7276 5.25049 14.8425 4.75004 13.9195 4.75004ZM13.9195 21.3752C18.5652 21.3752 27.8391 24.534 27.8391 30.8753V38.0003H0V30.8753C0 24.534 9.27389 21.3752 13.9195 21.3752ZM13.9195 25.8877C8.75191 25.8877 3.30589 29.3553 3.30589 30.8753V33.4878H24.5332V30.8753C24.5332 29.3553 19.0872 25.8877 13.9195 25.8877Z" fill="#F8F8F8"/>
</svg>
