<svg width="38" height="50" viewBox="0 0 38 50" fill="none" xmlns="http://www.w3.org/2000/svg">
<path d="M34.7241 24.8357C34.725 25.313 34.6291 25.7825 34.4457 26.1985C34.2622 26.6145 33.9975 26.9628 33.6773 27.2097L13.8325 42.6975C13.4979 42.9588 13.1147 43.1015 12.7224 43.1108C12.3302 43.1201 11.9431 42.9956 11.6012 42.7502C11.2625 42.5086 10.9804 42.1563 10.7838 41.7295C10.5872 41.3027 10.4833 40.8168 10.4828 40.3218V9.34966C10.4833 8.85464 10.5872 8.36874 10.7838 7.94193C10.9804 7.51513 11.2625 7.16282 11.6012 6.92124C11.9431 6.67585 12.3302 6.55135 12.7224 6.56062C13.1147 6.56989 13.4979 6.71258 13.8325 6.97395L33.6773 22.4618C33.9975 22.7086 34.2622 23.0569 34.4457 23.4729C34.6291 23.8889 34.725 24.3584 34.7241 24.8357Z" fill="white"/>
</svg>
