<svg width="28" height="38" viewBox="0 0 28 38" fill="none" xmlns="http://www.w3.org/2000/svg">
<path d="M13.9192 0C15.765 0 17.5352 1.00087 18.8403 2.78244C20.1455 4.564 20.8788 6.98032 20.8788 9.49983C20.8788 12.0193 20.1455 14.4357 18.8403 16.2172C17.5352 17.9988 15.765 18.9997 13.9192 18.9997C12.0734 18.9997 10.3032 17.9988 8.998 16.2172C7.69283 14.4357 6.95959 12.0193 6.95959 9.49983C6.95959 6.98032 7.69283 4.564 8.998 2.78244C10.3032 1.00087 12.0734 0 13.9192 0ZM13.9192 23.7496C21.6095 23.7496 27.8383 28.0008 27.8383 33.2494V37.9993H0V33.2494C0 28.0008 6.22883 23.7496 13.9192 23.7496Z" fill="#F8F8F8"/>
</svg>
